<svg width="29" height="31" viewBox="0 0 29 31" fill="none" xmlns="http://www.w3.org/2000/svg">
<path d="M18.5009 0.87207H1.56017C1.18575 0.87207 0.826674 1.02081 0.561923 1.28556C0.297173 1.55031 0.148438 1.90939 0.148438 2.2838V27.6949C0.148438 28.0693 0.297173 28.4284 0.561923 28.6932C0.826674 28.9579 1.18575 29.1067 1.56017 29.1067H13.214C11.9679 27.3187 11.3477 25.1689 11.4501 22.9919C11.5526 20.8149 12.3717 18.7329 13.7802 17.0697C15.1887 15.4066 17.1074 14.2558 19.2378 13.7963C21.3682 13.3368 23.5908 13.5944 25.5596 14.5291V7.93072L18.5009 0.87207ZM15.3754 19.6862C15.4304 18.6599 16.2224 17.8241 17.2445 17.7154L18.4727 17.5855C18.619 17.5697 18.7567 17.5085 18.8666 17.4105L19.7856 16.5846C20.1555 16.2513 20.6322 16.0611 21.1299 16.0481C21.6277 16.0352 22.1137 16.2004 22.5004 16.514L23.4632 17.2905C23.5761 17.3822 23.7173 17.4359 23.8641 17.4444L25.0979 17.5107C26.1243 17.5658 26.96 18.3578 27.0687 19.3798L27.1986 20.608C27.2144 20.7544 27.2757 20.8921 27.3736 21.0019L28.1995 21.921C28.887 22.6861 28.9167 23.8367 28.2701 24.6357L27.4936 25.5985C27.402 25.7129 27.3482 25.8531 27.3398 25.9994L27.2734 27.2333C27.2479 27.7306 27.0455 28.2025 26.7028 28.5638C26.3601 28.9252 25.8996 29.1522 25.4043 29.2041L24.1761 29.334C24.0297 29.3498 23.892 29.411 23.7822 29.509L22.8632 30.3349C22.4933 30.6682 22.0165 30.8584 21.5188 30.8714C21.0211 30.8843 20.5351 30.7191 20.1484 30.4055L19.1856 29.629C19.0712 29.5373 18.9311 29.4835 18.7847 29.4751L17.5508 29.4088C17.0535 29.3832 16.5816 29.1808 16.2203 28.8381C15.8589 28.4954 15.6319 28.0349 15.5801 27.5396L15.4502 26.3114C15.4343 26.1651 15.3731 26.0274 15.2751 25.9176L14.4493 24.9985C14.116 24.6287 13.9257 24.1519 13.9128 23.6542C13.8998 23.1565 14.065 22.6705 14.3787 22.2838L15.1551 21.321C15.2468 21.2066 15.3006 21.0664 15.309 20.92L15.3754 19.6862ZM25.6019 22.0904L24.1055 20.5939L20.6185 24.0809L18.5433 22.0057L17.0468 23.5021L19.8703 26.3256L20.6185 27.0738L21.3667 26.3256L25.6019 22.0904Z" fill="white"/>
</svg>
