<svg width="41" height="31" viewBox="0 0 41 31" fill="none" xmlns="http://www.w3.org/2000/svg">
<path d="M0.701172 4.25C0.701172 2.318 2.26917 0.75 4.20117 0.75H31.2012C33.1332 0.75 34.7012 2.318 34.7012 4.25V21.25C34.7012 22.1783 34.3324 23.0685 33.676 23.7249C33.0197 24.3813 32.1294 24.75 31.2012 24.75H4.20117C3.27291 24.75 2.38268 24.3813 1.7263 23.7249C1.06992 23.0685 0.701172 22.1783 0.701172 21.25V4.25ZM6.70117 3.25V5.25C6.70117 5.64782 6.54314 6.02936 6.26183 6.31066C5.98053 6.59196 5.599 6.75 5.20117 6.75H3.20117V9.75H5.20117C5.79212 9.75 6.37728 9.6336 6.92325 9.40746C7.46921 9.18131 7.96529 8.84984 8.38315 8.43198C8.80102 8.01412 9.13248 7.51804 9.35863 6.97207C9.58478 6.42611 9.70117 5.84095 9.70117 5.25V3.25H6.70117ZM17.7012 17.75C18.8946 17.75 20.0392 17.2759 20.8832 16.432C21.7271 15.5881 22.2012 14.4435 22.2012 13.25C22.2012 12.0565 21.7271 10.9119 20.8832 10.068C20.0392 9.22411 18.8946 8.75 17.7012 8.75C16.5077 8.75 15.3631 9.22411 14.5192 10.068C13.6753 10.9119 13.2012 12.0565 13.2012 13.25C13.2012 14.4435 13.6753 15.5881 14.5192 16.432C15.3631 17.2759 16.5077 17.75 17.7012 17.75ZM3.20117 18.75H5.20117C5.599 18.75 5.98053 18.908 6.26183 19.1893C6.54314 19.4706 6.70117 19.8522 6.70117 20.25V22.25H9.70117V20.25C9.70117 19.0565 9.22707 17.9119 8.38315 17.068C7.53924 16.2241 6.39465 15.75 5.20117 15.75H3.20117V18.75ZM28.7012 20.25C28.7012 19.8522 28.8592 19.4706 29.1405 19.1893C29.4218 18.908 29.8033 18.75 30.2012 18.75H32.2012V15.75H30.2012C29.0077 15.75 27.8631 16.2241 27.0192 17.068C26.1753 17.9119 25.7012 19.0565 25.7012 20.25V22.25H28.7012V20.25ZM28.7012 5.25V3.25H25.7012V5.25C25.7012 5.84095 25.8176 6.42611 26.0437 6.97207C26.2699 7.51804 26.6013 8.01412 27.0192 8.43198C27.8631 9.27589 29.0077 9.75 30.2012 9.75H32.2012V6.75H30.2012C29.8033 6.75 29.4218 6.59196 29.1405 6.31066C28.8592 6.02936 28.7012 5.64782 28.7012 5.25ZM5.50317 27.75C6.02994 28.6624 6.78766 29.42 7.70012 29.9466C8.61259 30.4732 9.64764 30.7503 10.7012 30.75H31.2012C32.4487 30.75 33.6841 30.5043 34.8367 30.0269C35.9893 29.5494 37.0365 28.8497 37.9187 27.9675C38.8008 27.0854 39.5006 26.0381 39.978 24.8855C40.4554 23.7329 40.7012 22.4976 40.7012 21.25V10.75C40.7015 9.69647 40.4244 8.66142 39.8978 7.74895C39.3712 6.83649 38.6136 6.07877 37.7012 5.552V21.25C37.7012 22.9739 37.0164 24.6272 35.7974 25.8462C34.5784 27.0652 32.9251 27.75 31.2012 27.75H5.50317Z" fill="white"/>
</svg>
