<svg width="31" height="31" viewBox="0 0 31 31" fill="none" xmlns="http://www.w3.org/2000/svg">
<path d="M19.6401 23.0586C21.6448 23.0586 22.4238 23.9507 23.016 25.9279L23.1201 26.2906C23.3986 27.296 23.5669 27.5975 23.9051 27.7368C24.3015 27.9005 24.5647 27.8776 24.9809 27.6633L25.2059 27.5378C25.2855 27.4889 25.3752 27.4317 25.4752 27.3664L26.4898 26.6763C27.4325 26.0565 28.2803 25.6463 29.3102 25.3892C29.4573 25.3502 29.6106 25.3407 29.7613 25.3614C29.912 25.3822 30.0571 25.4326 30.1882 25.5099C30.3192 25.5872 30.4336 25.6898 30.5246 25.8117C30.6156 25.9336 30.6815 26.0724 30.7184 26.2199C30.7554 26.3675 30.7626 26.521 30.7397 26.6714C30.7167 26.8218 30.6642 26.9661 30.585 27.096C30.5058 27.2259 30.4015 27.3388 30.2783 27.428C30.1551 27.5173 30.0154 27.5811 29.8673 27.6159C29.2471 27.7727 28.6553 28.0257 28.1135 28.3657L27.6575 28.6565L26.9229 29.1585C26.6362 29.3574 26.3383 29.5398 26.0307 29.7048C25.0467 30.2098 24.0872 30.2955 23.0298 29.8578C21.8897 29.3895 21.4306 28.6657 21.0005 27.2256L20.7618 26.3947C20.4848 25.4933 20.2951 25.3541 19.6416 25.3541C19.1672 25.3541 18.6775 25.5913 18.0057 26.1544L17.7241 26.4008L16.3147 27.7398C14.16 29.766 12.322 30.75 9.69141 30.75C7.11025 30.752 4.8821 30.3598 3.00693 29.5732L7.51681 28.3428C8.20036 28.4162 8.92523 28.4535 9.69141 28.4545C11.5018 28.4545 12.801 27.8194 14.4155 26.3687L14.8104 26.0029L15.6245 25.2224C15.9857 24.8751 16.2581 24.6256 16.5305 24.3961C17.5772 23.5192 18.5275 23.0586 19.6416 23.0586M26.193 2.3532C27.219 3.38045 27.7954 4.773 27.7954 6.22493C27.7954 7.67686 27.219 9.06941 26.193 10.0967L25.7522 10.5405C27.5136 12.6829 27.4509 14.957 25.8119 16.6006L22.7467 19.6612C22.5311 19.8763 22.239 19.997 21.9345 19.9967C21.63 19.9964 21.3381 19.8752 21.123 19.6597C20.9079 19.4442 20.7872 19.152 20.7875 18.8475C20.7878 18.543 20.909 18.2511 21.1245 18.036L24.1836 14.9784C24.9258 14.2331 25.01 13.3104 24.1224 12.1641L10.9371 25.3541C10.513 25.7781 9.98548 26.0841 9.40677 26.2416L1.57913 28.3765C1.384 28.4294 1.17835 28.4298 0.982982 28.3778C0.787617 28.3257 0.609476 28.2229 0.466586 28.0799C0.323696 27.9368 0.221129 27.7586 0.169264 27.5632C0.117399 27.3677 0.118078 27.1621 0.17123 26.967L2.30451 19.1379C2.46229 18.5597 2.76823 18.0327 3.1921 17.6091L18.4464 2.3532C19.4737 1.32665 20.8666 0.75 22.3189 0.75C23.7712 0.75 25.1656 1.32665 26.193 2.3532Z" fill="white"/>
</svg>
