<svg width="47" height="37" viewBox="0 0 47 37" fill="none" xmlns="http://www.w3.org/2000/svg">
<path d="M22.388 12.2858L18.0651 7.91081C17.6484 7.49414 17.4401 7.00803 17.4401 6.45247C17.4401 5.89692 17.6484 5.41081 18.0651 4.99414L22.3943 0.619141C22.8068 0.202474 23.297 -0.00585938 23.8651 -0.00585938C24.4345 -0.00585938 24.9318 0.202474 25.3568 0.619141L29.6797 4.99414C30.0964 5.41081 30.3047 5.89692 30.3047 6.45247C30.3047 7.00803 30.0964 7.49414 29.6797 7.91081L25.3505 12.2858C24.938 12.7025 24.4477 12.9108 23.8797 12.9108C23.3102 12.9108 22.813 12.7025 22.388 12.2858ZM3.01302 36.6608C2.42274 36.6608 1.9283 36.4608 1.52969 36.0608C1.13108 35.6608 0.931076 35.1664 0.929688 34.5775V28.3275C0.929688 27.1469 1.33802 26.1573 2.15469 25.3587C2.97135 24.5601 3.95191 24.1608 5.09635 24.1608H11.9193C12.6137 24.1608 13.2734 24.3344 13.8984 24.6816C14.5234 25.0289 15.0269 25.4976 15.4089 26.0879C16.4158 27.4421 17.6575 28.5011 19.1339 29.265C20.6102 30.0289 22.1811 30.4108 23.8464 30.4108C25.5477 30.4108 27.1366 30.0289 28.613 29.265C30.0894 28.5011 31.313 27.4421 32.2839 26.0879C32.7352 25.4976 33.2651 25.0289 33.8734 24.6816C34.4818 24.3344 35.1151 24.1608 35.7734 24.1608H42.5964C43.7769 24.1608 44.7665 24.5601 45.5651 25.3587C46.3637 26.1573 46.763 27.1469 46.763 28.3275V34.5775C46.763 35.1678 46.563 35.6629 46.163 36.0629C45.763 36.4629 45.2686 36.6622 44.6797 36.6608H34.263C33.6727 36.6608 33.1783 36.4608 32.7797 36.0608C32.3811 35.6608 32.1811 35.1664 32.1797 34.5775V31.9212C30.9644 32.7893 29.6533 33.449 28.2464 33.9004C26.8394 34.3518 25.3727 34.5775 23.8464 34.5775C22.3533 34.5775 20.895 34.3434 19.4714 33.8754C18.0477 33.4073 16.7283 32.7386 15.513 31.8691V34.5775C15.513 35.1678 15.313 35.6629 14.913 36.0629C14.513 36.4629 14.0186 36.6622 13.4297 36.6608H3.01302ZM7.17969 22.0775C5.44358 22.0775 3.96788 21.4698 2.7526 20.2546C1.53733 19.0393 0.929688 17.5636 0.929688 15.8275C0.929688 14.0566 1.53733 12.5726 2.7526 11.3754C3.96788 10.1782 5.44358 9.57886 7.17969 9.57747C8.95052 9.57747 10.4352 10.1768 11.6339 11.3754C12.8325 12.574 13.4311 14.058 13.4297 15.8275C13.4297 17.5636 12.8311 19.0393 11.6339 20.2546C10.4366 21.4698 8.95191 22.0775 7.17969 22.0775ZM40.513 22.0775C38.7769 22.0775 37.3012 21.4698 36.0859 20.2546C34.8707 19.0393 34.263 17.5636 34.263 15.8275C34.263 14.0566 34.8707 12.5726 36.0859 11.3754C37.3012 10.1782 38.7769 9.57886 40.513 9.57747C42.2839 9.57747 43.7686 10.1768 44.9672 11.3754C46.1658 12.574 46.7644 14.058 46.763 15.8275C46.763 17.5636 46.1644 19.0393 44.9672 20.2546C43.77 21.4698 42.2852 22.0775 40.513 22.0775Z" fill="white"/>
</svg>
