<svg width="47" height="53" viewBox="0 0 47 53" fill="none" xmlns="http://www.w3.org/2000/svg">
<path d="M22.6305 45.4608C33.6092 45.4608 42.5091 36.5608 42.5091 25.5822C42.5091 14.6036 33.6092 5.70361 22.6305 5.70361C11.6519 5.70361 2.75195 14.6036 2.75195 25.5822C2.75195 36.5608 11.6519 45.4608 22.6305 45.4608Z" fill="white"/>
<path fill-rule="evenodd" clip-rule="evenodd" d="M28.5172 42.2186C28.5172 43.1144 27.792 43.5837 26.8962 43.2424L19.0898 40.3843C18.1939 40.043 17.4688 39.0619 17.4688 38.1661V17.6476C17.4688 16.7518 18.1939 16.2826 19.0898 16.6239L26.8962 19.4819C27.792 19.8232 28.5172 20.8043 28.5172 21.7001V42.2186ZM26.8962 41.4934V21.7001C26.8962 21.5295 26.6402 21.1456 26.3416 21.0176L19.1324 18.3728V38.2088C19.1324 38.3794 19.3884 38.7633 19.687 38.8913L26.8962 41.4934ZM21.6066 18.3728C21.4359 18.2875 21.2653 18.4155 21.2653 18.5861C21.2653 18.7568 21.4359 18.97 21.6066 19.0554L24.422 20.0791C24.5926 20.1645 24.7633 20.0365 24.7633 19.8659C24.7633 19.6952 24.5926 19.4819 24.422 19.3966L21.6066 18.3728Z" fill="url(#paint0_linear_1651_13371)"/>
<path fill-rule="evenodd" clip-rule="evenodd" d="M28.5173 34.0709H34.2762C34.4468 34.0709 34.6174 33.9003 34.6174 33.7296V19.9511C34.6174 19.8658 34.5748 19.7378 34.4895 19.6952L22.8438 10.1398C22.7159 10.0545 22.5452 10.0545 22.4173 10.1398L10.7717 19.6952C10.6863 19.7805 10.6437 19.8658 10.6437 19.9511V33.687C10.6437 33.8576 10.8143 34.0282 10.9849 34.0282H17.5116V36.2464H10.9849C9.57723 36.2464 8.38281 35.0947 8.38281 33.6443V19.9511C8.38281 19.1833 8.72408 18.4581 9.32129 17.9462L20.9669 8.39082C21.9054 7.62298 23.3131 7.62298 24.2516 8.39082L35.8972 17.9462C36.4944 18.4581 36.8356 19.1833 36.8356 19.9511V33.687C36.8356 35.0947 35.6839 36.2891 34.2335 36.2891H28.5173V34.0709Z" fill="#750AAF"/>
<path d="M33.7637 14.1495C33.7637 13.8935 33.849 13.5949 33.977 13.3816C34.1049 13.1257 34.3182 12.955 34.5315 12.8271C34.7875 12.6991 35.0434 12.6138 35.2994 12.6138C35.5553 12.6138 35.8539 12.6991 36.0672 12.8271C36.3231 12.955 36.4938 13.1683 36.6218 13.3816C36.7497 13.6376 36.835 13.8935 36.835 14.1495C36.835 14.4054 36.7497 14.6613 36.6218 14.9173C36.4938 15.1732 36.2805 15.3439 36.0672 15.4718C35.8112 15.5998 35.5553 15.6851 35.2567 15.6851C34.9581 15.6851 34.7021 15.5998 34.4462 15.4718C34.1903 15.3439 34.0196 15.1306 33.8916 14.9173C33.849 14.704 33.7637 14.4481 33.7637 14.1495ZM34.0196 14.1495C34.0196 14.4054 34.0623 14.6187 34.1903 14.7893C34.3182 15.0026 34.4462 15.1306 34.6595 15.2586C34.8728 15.3865 35.0861 15.4292 35.2994 15.4292C35.5553 15.4292 35.7686 15.3865 35.9392 15.2586C36.1525 15.1306 36.2805 15.0026 36.4085 14.7893C36.5364 14.576 36.5791 14.3627 36.5791 14.1495C36.5791 13.9362 36.5364 13.6802 36.4085 13.5096C36.2805 13.2963 36.1525 13.1683 35.9392 13.0403C35.7259 12.9124 35.5126 12.8697 35.2994 12.8697C35.0861 12.8697 34.8728 12.9124 34.6595 13.0403C34.4462 13.1683 34.3182 13.2963 34.1903 13.5096C34.0623 13.7229 34.0196 13.9362 34.0196 14.1495ZM35.9392 13.8082C35.9392 14.0641 35.8539 14.1921 35.6406 14.2774L36.1525 15.0879H35.7259L35.342 14.3627H35.1714V15.0879H34.7021V13.211H35.2567C35.5126 13.211 35.6833 13.2536 35.7686 13.339C35.8966 13.4669 35.9392 13.5949 35.9392 13.8082ZM35.0861 14.0641H35.214C35.2994 14.0641 35.3847 14.0215 35.4273 13.9788C35.47 13.9362 35.5126 13.8508 35.5126 13.7655C35.5126 13.6802 35.47 13.5949 35.4273 13.5522C35.3847 13.5096 35.2994 13.5096 35.1714 13.5096H35.0434L35.0861 14.0641Z" fill="#750AAF"/>
<defs>
<linearGradient id="paint0_linear_1651_13371" x1="17.5014" y1="29.9363" x2="28.5232" y2="29.9363" gradientUnits="userSpaceOnUse">
<stop stop-color="#750AAF"/>
<stop offset="0.25" stop-color="#750AAF"/>
<stop offset="0.306" stop-color="#6E1EB5"/>
<stop offset="0.4207" stop-color="#5D51C6"/>
<stop offset="0.5842" stop-color="#42A4E1"/>
<stop offset="0.75" stop-color="#24FFFF"/>
<stop offset="0.9987" stop-color="#24FFFF"/>
<stop offset="1" stop-color="#24FFFF"/>
</linearGradient>
</defs>
</svg>
