<svg width="31" height="31" viewBox="0 0 31 31" fill="none" xmlns="http://www.w3.org/2000/svg">
<path d="M5.69141 8.08594C5.09467 8.08594 4.52237 7.84889 4.10042 7.42693C3.67846 7.00497 3.44141 6.43267 3.44141 5.83594C3.44141 5.2392 3.67846 4.6669 4.10042 4.24495C4.52237 3.82299 5.09467 3.58594 5.69141 3.58594C6.28814 3.58594 6.86044 3.82299 7.2824 4.24495C7.70435 4.6669 7.94141 5.2392 7.94141 5.83594C7.94141 6.43267 7.70435 7.00497 7.2824 7.42693C6.86044 7.84889 6.28814 8.08594 5.69141 8.08594ZM29.5564 14.9559L16.0564 1.45594C15.5164 0.915937 14.7664 0.585938 13.9414 0.585938H3.44141C1.77641 0.585938 0.441406 1.92094 0.441406 3.58594V14.0859C0.441406 14.9109 0.771406 15.6609 1.32641 16.2009L14.8114 29.7009C15.3664 30.2409 16.1164 30.5859 16.9414 30.5859C17.7664 30.5859 18.5164 30.2409 19.0564 29.7009L29.5564 19.2009C30.1114 18.6609 30.4414 17.9109 30.4414 17.0859C30.4414 16.2459 30.0964 15.4959 29.5564 14.9559Z" fill="white"/>
</svg>
