<svg width="25" height="40" viewBox="0 0 25 40" fill="none" xmlns="http://www.w3.org/2000/svg">
<path d="M15.4147 17.9758H24.3688V14.673H17.7266L14.0569 8.56295C13.5065 7.64552 12.5156 7.02166 11.378 7.02166C11.0477 7.02166 10.7542 7.07671 10.4606 7.16845L0.515625 10.2694V19.8107H3.81838V13.0767L7.68994 11.8657L0.515625 39.9941H3.81838L9.08443 25.1134L13.3597 30.8198V39.9941H16.6624V28.2327L12.0936 19.9024L13.4331 14.6363M15.1945 6.59965C17.0294 6.59965 18.4973 5.13176 18.4973 3.29689C18.4973 1.46203 17.0294 -0.00585938 15.1945 -0.00585938C13.3597 -0.00585938 11.8918 1.46203 11.8918 3.29689C11.8918 5.13176 13.3597 6.59965 15.1945 6.59965Z" fill="white"/>
</svg>
