<svg width="24" height="31" viewBox="0 0 24 31" fill="none" xmlns="http://www.w3.org/2000/svg">
<path d="M23.1814 30.5605H0.324219V27.7034C0.324219 25.809 1.07677 23.9922 2.41631 22.6526C3.75586 21.3131 5.57267 20.5605 7.46708 20.5605H16.0385C17.9329 20.5605 19.7497 21.3131 21.0893 22.6526C22.4288 23.9922 23.1814 25.809 23.1814 27.7034V30.5605ZM11.7528 17.7034C10.6272 17.7034 9.51258 17.4817 8.47265 17.0509C7.43271 16.6202 6.4878 15.9888 5.69187 15.1929C4.89594 14.397 4.26458 13.4521 3.83382 12.4121C3.40307 11.3722 3.18136 10.2576 3.18136 9.13198C3.18136 8.00636 3.40307 6.89177 3.83382 5.85183C4.26458 4.8119 4.89594 3.86699 5.69187 3.07106C6.4878 2.27513 7.43271 1.64376 8.47265 1.21301C9.51258 0.782253 10.6272 0.560547 11.7528 0.560547C14.0261 0.560547 16.2063 1.46361 17.8137 3.07106C19.4212 4.67851 20.3242 6.85869 20.3242 9.13198C20.3242 11.4053 19.4212 13.5854 17.8137 15.1929C16.2063 16.8003 14.0261 17.7034 11.7528 17.7034Z" fill="white"/>
</svg>
